<?xml version="1.0"?>
<svg fill="#f47729" xmlns="http://www.w3.org/2000/svg" viewBox="0 0 64 64" width="32" height="32"><g id="Sell_ticket" data-name="Sell ticket"><path d="M59,56H58V46h1a3,3,0,0,0,0-6H58V5a3,3,0,0,0-3-3H9A3,3,0,0,0,6,5V40H5a3,3,0,0,0,0,6H6V56H5a3,3,0,0,0,0,6H59a3,3,0,0,0,0-6ZM8,5A1,1,0,0,1,9,4H55a1,1,0,0,1,1,1V40H52V35a7.007,7.007,0,0,0-4.433-6.506,4.923,4.923,0,0,0,1.22-4.905A.978.978,0,0,0,49,23V21a3,3,0,0,0-3-3H42a3,3,0,0,0-3,3v2a.978.978,0,0,0,.213.589,4.923,4.923,0,0,0,1.22,4.905A7.007,7.007,0,0,0,36,35v5H33V29H31V40H28V35a7.007,7.007,0,0,0-4.433-6.506,4.923,4.923,0,0,0,1.22-4.905A.978.978,0,0,0,25,23V21a3,3,0,0,0-3-3H18a3,3,0,0,0-3,3v2a.978.978,0,0,0,.213.589,4.923,4.923,0,0,0,1.22,4.905A7.007,7.007,0,0,0,12,35v5H8ZM47,22H41V21a1,1,0,0,1,1-1h4a1,1,0,0,1,1,1Zm-5.8,2H46.8a2.926,2.926,0,0,1,.2,1,3,3,0,0,1-6,0A2.926,2.926,0,0,1,41.2,24ZM43,30v7h2V30a5.006,5.006,0,0,1,5,5v5H38V35A5.006,5.006,0,0,1,43,30ZM23,22H17V21a1,1,0,0,1,1-1h4a1,1,0,0,1,1,1Zm-5.8,2H22.8a2.926,2.926,0,0,1,.2,1,3,3,0,0,1-6,0A2.926,2.926,0,0,1,17.2,24ZM19,30v7h2V30a5.006,5.006,0,0,1,5,5v5H14V35A5.006,5.006,0,0,1,19,30ZM4,43a1,1,0,0,1,1-1H59a1,1,0,0,1,0,2H5A1,1,0,0,1,4,43Zm4,3H56V56H8ZM59,60H5a1,1,0,0,1,0-2H59a1,1,0,0,1,0,2Z"/><path d="M53,16a1,1,0,0,0,1-1V7a1,1,0,0,0-1-1H11a1,1,0,0,0-1,1v8a1,1,0,0,0,1,1ZM12,8H52v6H12Z"/></g></svg>
