<?xml version="1.0"?>
<svg fill="#f47729" xmlns="http://www.w3.org/2000/svg" id="Outline" viewBox="0 0 512 512" width="32" height="32"><path d="M488,64H464V56a8,8,0,0,0-8-8H400V40a24,24,0,0,0-48,0v8H336V40a24,24,0,0,0-48,0v8H192V40a24,24,0,0,0-48,0v8H128V40a24,24,0,0,0-48,0v8H24a8,8,0,0,0-8,8V456a8,8,0,0,0,8,8h8v24a8,8,0,0,0,8,8H488a8,8,0,0,0,8-8V72A8,8,0,0,0,488,64ZM32,448V160H448V448ZM368,40a8,8,0,0,1,16,0v8H368Zm-64,0a8,8,0,0,1,16,0v8H304ZM160,40a8,8,0,0,1,16,0v8H160ZM96,40a8,8,0,0,1,16,0v8H96ZM80,64v8a24.028,24.028,0,0,0,24,24,8,8,0,0,0,0-16,8.009,8.009,0,0,1-8-8V64h48v8a24.028,24.028,0,0,0,24,24,8,8,0,0,0,0-16,8.009,8.009,0,0,1-8-8V64H288v8a24.028,24.028,0,0,0,24,24,8,8,0,0,0,0-16,8.009,8.009,0,0,1-8-8V64h48v8a24.028,24.028,0,0,0,24,24,8,8,0,0,0,0-16,8.009,8.009,0,0,1-8-8V64h80v80H32V64ZM480,480H48V464H456a8,8,0,0,0,8-8V80h16Z"/><path d="M240,416A112,112,0,1,0,128,304,112.127,112.127,0,0,0,240,416Zm0-208a96,96,0,1,1-96,96A95.54,95.54,0,0,1,240,208Z"/><circle cx="240" cy="248" r="8"/><path d="M240,368a24.027,24.027,0,0,0,24-24,8,8,0,0,0-16,0,8,8,0,0,1-15.958.819l15.719-62.879a8,8,0,0,0-15.522-3.88l-16,64A7.977,7.977,0,0,0,216,344,24.027,24.027,0,0,0,240,368Z"/></svg>
