<svg fill="#f47729" height="32" viewBox="-30 0 375 375.46667" width="32" xmlns="http://www.w3.org/2000/svg"><path d="m307.433594 0h-211.625c-3.773438 0-6.828125 3.054688-6.828125 6.828125v34.640625h-55.324219c-18.429688 0-33.421875 14.996094-33.421875 33.425781v267.148438c0 18.429687 14.992187 33.421875 33.421875 33.421875h145.1875c18.429688 0 33.421875-14.992188 33.421875-33.421875v-198.582031h95.167969c3.769531 0 6.828125-3.058594 6.828125-6.828126v-129.804687c0-3.773437-3.058594-6.828125-6.828125-6.828125zm-273.777344 55.125h55.324219v26.796875h-75.09375v-7.027344c0-10.902343 8.871093-19.769531 19.769531-19.769531zm164.957031 265.726562h-184.726562v-56.421874c.863281-.421876 1.660156-.992188 2.304687-1.78125l20.898438-25.828126 16.265625 32.535157c2.453125 4.890625 7.378906 7.78125 12.835937 7.472656 5.464844-.289063 10.058594-3.652344 11.980469-8.777344l15.199219-41.050781 16.757812 55.851562c1.660156 5.527344 6.453125 9.308594 12.210938 9.636719.269531.015625.535156.023438.804687.023438 5.4375 0 10.257813-3.160157 12.421875-8.214844l15.761719-37.15625 15.183594 20.246094c2.621093 3.5 6.828125 5.566406 11.15625 5.417969 4.367187-.101563 8.4375-2.320313 10.894531-5.933594l10.050781-14.792969zm-19.769531 40.960938h-145.1875c-10.898438 0-19.769531-8.867188-19.769531-19.769531v-7.535157h184.726562v7.535157c0 10.902343-8.871093 19.769531-19.769531 19.769531zm19.769531-133.660156c-.246093.261718-.550781.4375-.757812.742187l-20.421875 30.296875-15.183594-20.246094c-2.945312-3.914062-7.617188-5.902343-12.464844-5.320312-4.859375.585938-8.910156 3.617188-10.832031 8.117188l-15.746094 37.183593-16.757812-55.847656c-1.699219-5.667969-6.617188-9.453125-12.527344-9.65625-6.007813-.203125-11.070313 3.25-13.144531 8.789063l-15.210938 41.035156-16.261718-32.53125c-2.066407-4.132813-6.042969-6.902344-10.632813-7.410156-4.59375-.515626-9.070313 1.316406-11.996094 4.898437l-12.789062 15.667969v-148.296875h75.09375v41.058593c0 3.769532 3.054687 6.828126 6.828125 6.828126h40.957031v34.03125c0 2.761718 1.664063 5.25 4.214844 6.308593.847656.347657 1.730469.519531 2.613281.519531 1.777344 0 3.519531-.691406 4.824219-2l38.863281-38.859374h11.332031zm101.992188-98.34375h-116.152344c-1.8125 0-3.546875.71875-4.828125 2l-29.203125 29.207031v-24.382813c0-3.769531-3.058594-6.824218-6.828125-6.824218h-40.960938v-116.15625h197.972657zm0 0"/><path d="m129.941406 47.785156h47.785156c3.769532 0 6.828126-3.054687 6.828126-6.824218 0-3.769532-3.058594-6.828126-6.828126-6.828126h-47.785156c-3.769531 0-6.828125 3.058594-6.828125 6.828126 0 3.769531 3.058594 6.824218 6.828125 6.824218zm0 0"/><path d="m129.941406 75.09375h143.359375c3.769531 0 6.824219-3.058594 6.824219-6.828125s-3.054688-6.824219-6.824219-6.824219h-143.359375c-3.769531 0-6.828125 3.054688-6.828125 6.824219s3.058594 6.828125 6.828125 6.828125zm0 0"/><path d="m129.941406 102.398438h143.359375c3.769531 0 6.824219-3.054688 6.824219-6.824219s-3.054688-6.828125-6.824219-6.828125h-143.359375c-3.769531 0-6.828125 3.058594-6.828125 6.828125s3.058594 6.824219 6.828125 6.824219zm0 0"/></svg>